<?xml version="1.0" encoding="utf-8"?>
<!-- Generator: Adobe Illustrator 19.0.0, SVG Export Plug-In . SVG Version: 6.00 Build 0)  -->
<!DOCTYPE svg PUBLIC "-//W3C//DTD SVG 1.1//EN" "http://www.w3.org/Graphics/SVG/1.1/DTD/svg11.dtd">
<svg version="1.1" id="Laag_2" xmlns="http://www.w3.org/2000/svg" xmlns:xlink="http://www.w3.org/1999/xlink" x="0px" y="0px"
	 viewBox="141.8 -14.5 322.2 56.5" style="enable-background:new 141.8 -14.5 322.2 56.5;" xml:space="preserve">
<style type="text/css">
	.st0{fill:#999A9A;}
	.st1{fill:#1E1E1C;}
	.st2{fill:#F27900;}
</style>
<g>
	<path class="st0" d="M154.7,39.4l-11.5-52.3h13.3l3.1,21.7c0.8,5.5,1.6,11.4,2.2,17.3h0.2c0.6-6,1.2-11.8,2-17.5l2.9-21.5h13.2
		l-11.9,52.3H154.7z"/>
	<rect x="184" y="-12.9" class="st0" width="12" height="52.3"/>
	<path class="st0" d="M220.8,19.8l-1.3-9.9c-0.4-3-1.1-8.6-1.5-11.9h-0.2c-0.5,3.3-1.3,9.1-1.8,11.9l-1.6,9.9H220.8z M213.3,29.1
		l-1.8,10.3h-11.6L211-12.9h14.6l10.2,52.3h-12.3l-1.7-10.3H213.3z"/>
	<path class="st1" d="M247.9,39.4l-10.5-52.3h12.8l3.1,21.7c0.8,5.5,1.6,11.4,2.2,17.3h0.2c0.6-6,1.2-11.8,2-17.5l2.9-21.5h13.2
		L262,39.4H247.9z"/>
	<path class="st1" d="M291.9,19.8l-1.3-9.9c-0.4-3-1.1-8.6-1.6-11.9h-0.2c-0.5,3.3-1.3,9.1-1.8,11.9l-1.6,9.9H291.9z M284.4,29.1
		l-1.8,10.3H271l11.1-52.3h14.6l9.5,52.3h-11.6l-1.7-10.3H284.4z"/>
	<path class="st1" d="M336.3,38.7c-1.4,0.6-4.3,1.2-8,1.2c-14.7,0-20.7-12.2-20.7-25.8c0-19.3,11.2-27.5,22.1-27.5
		c3.8,0,6.4,0.8,7.4,1.4l-1.9,10.1c-1.2-0.5-2.5-1-4.5-1c-5.9,0-10.5,4.8-10.5,16.5c0,10.9,4.3,15.7,10.3,15.7
		c1.5,0,3.4-0.3,4.6-0.6L336.3,38.7z"/>
	<polygon class="st2" points="247.9,39.4 237.4,-12.9 225.5,-12.9 235.7,39.4 	"/>
</g>
<g>
	<g>
		<path class="st1" d="M350.5,30h2l-3.2,9.4h-1.9l-3.2-9.4h2.1l2,7.1L350.5,30z"/>
		<path class="st1" d="M356.1,30h2.2l3.3,9.4h-2.1l-0.6-1.9h-3.5l-0.6,1.9h-2L356.1,30z M356,35.9h2.4l-1.2-3.7L356,35.9z"/>
		<path class="st1" d="M364.4,31c0.8-0.8,1.7-1.2,2.9-1.2c1.6,0,2.7,0.5,3.4,1.6c0.4,0.6,0.6,1.2,0.6,1.7h-2c-0.1-0.4-0.3-0.8-0.5-1
			c-0.3-0.4-0.9-0.6-1.6-0.6c-0.7,0-1.2,0.3-1.7,0.9c-0.4,0.6-0.6,1.4-0.6,2.4c0,1.1,0.2,1.8,0.6,2.4c0.4,0.5,1,0.8,1.6,0.8
			c0.7,0,1.2-0.2,1.5-0.7c0.2-0.2,0.4-0.6,0.5-1.1h1.9c-0.2,1-0.6,1.9-1.3,2.5c-0.7,0.6-1.6,1-2.7,1c-1.3,0-2.4-0.4-3.1-1.3
			c-0.8-0.9-1.1-2.1-1.1-3.6C363.1,33.1,363.5,31.9,364.4,31z"/>
		<path class="st1" d="M373.5,30h2v5.8c0,0.6,0.1,1.1,0.2,1.4c0.2,0.5,0.8,0.8,1.5,0.8c0.8,0,1.3-0.3,1.5-0.8
			c0.2-0.3,0.2-0.8,0.2-1.4V30h2v5.8c0,1-0.2,1.8-0.5,2.3c-0.6,1-1.7,1.5-3.3,1.5c-1.6,0-2.7-0.5-3.3-1.5c-0.3-0.6-0.5-1.3-0.5-2.3
			V30z"/>
		<path class="st1" d="M383.6,30h2v5.8c0,0.6,0.1,1.1,0.2,1.4c0.2,0.5,0.8,0.8,1.5,0.8c0.8,0,1.3-0.3,1.5-0.8
			c0.2-0.3,0.2-0.8,0.2-1.4V30h2v5.8c0,1-0.2,1.8-0.5,2.3c-0.6,1-1.7,1.5-3.3,1.5c-1.6,0-2.7-0.5-3.3-1.5c-0.3-0.6-0.5-1.3-0.5-2.3
			V30z"/>
		<path class="st1" d="M399.8,30h2.8v9.4h-1.8v-6.3c0-0.2,0-0.4,0-0.8c0-0.3,0-0.6,0-0.8l-1.8,7.9h-1.9l-1.8-7.9c0,0.2,0,0.4,0,0.8
			c0,0.3,0,0.6,0,0.8v6.3h-1.8V30h2.8l1.7,7.4L399.8,30z"/>
		<path class="st1" d="M409.4,30h2v7.7h4.7v1.7h-6.6V30z"/>
		<path class="st1" d="M419.7,39.4h-1.9V30h1.9V39.4z"/>
		<path class="st1" d="M422.2,30h6.7v1.6h-4.7v2.2h4.2v1.6h-4.2v3.9h-1.9V30z"/>
		<path class="st1" d="M437.6,30v1.7h-2.8v7.7h-2v-7.7H430V30H437.6z"/>
		<path class="st1" d="M441.2,39.4h-1.9V30h1.9V39.4z"/>
		<path class="st1" d="M443.7,30h2.1l3.7,6.5V30h1.8v9.4h-2l-3.8-6.6v6.6h-1.8V30z"/>
		<path class="st1" d="M460,32.9c-0.1-0.6-0.5-1.1-1.1-1.3c-0.3-0.1-0.7-0.2-1.1-0.2c-0.8,0-1.4,0.3-1.9,0.9
			c-0.5,0.6-0.7,1.4-0.7,2.6c0,1.2,0.3,2,0.8,2.4c0.5,0.5,1.1,0.7,1.8,0.7c0.7,0,1.2-0.2,1.6-0.6c0.4-0.4,0.7-0.9,0.8-1.5h-2.2v-1.6
			h3.9v5h-1.3l-0.2-1.2c-0.4,0.4-0.7,0.8-1,0.9c-0.5,0.3-1.2,0.5-1.9,0.5c-1.2,0-2.3-0.4-3.1-1.3c-0.8-0.9-1.2-2-1.2-3.5
			c0-1.5,0.4-2.7,1.3-3.6c0.8-0.9,1.9-1.4,3.3-1.4c1.2,0,2.1,0.3,2.9,0.9c0.7,0.6,1.1,1.4,1.2,2.3H460z"/>
	</g>
</g>
</svg>
